<mxfile host="app.diagrams.net" modified="2021-07-12T09:58:44.480Z" agent="5.0 (Macintosh; Intel Mac OS X 10_15_7) AppleWebKit/537.36 (KHTML, like Gecko) Chrome/88.0.4324.150 Safari/537.36 Edg/88.0.705.63" etag="YNz2bpbls2ya9hINBLNz" version="14.8.5" type="github">
  <diagram id="YFOOvoioTIi4EhTo8Pbk" name="Page-1">
    <mxGraphModel dx="1399" dy="803" grid="1" gridSize="10" guides="1" tooltips="1" connect="1" arrows="1" fold="1" page="1" pageScale="1" pageWidth="827" pageHeight="1169" math="0" shadow="0">
      <root>
        <mxCell id="0" />
        <mxCell id="1" parent="0" />
        <mxCell id="BEADETYPyIscL1xGhcD1-41" value="" style="rounded=0;whiteSpace=wrap;html=1;dashed=1;fillColor=none;" vertex="1" parent="1">
          <mxGeometry x="50" y="767.13" width="710" height="146.87" as="geometry" />
        </mxCell>
        <mxCell id="BEADETYPyIscL1xGhcD1-39" value="" style="rounded=0;whiteSpace=wrap;html=1;fillColor=none;dashed=1;" vertex="1" parent="1">
          <mxGeometry x="50" y="633.25" width="710" height="83.75" as="geometry" />
        </mxCell>
        <mxCell id="BEADETYPyIscL1xGhcD1-37" value="" style="rounded=0;whiteSpace=wrap;html=1;dashed=1;fillColor=none;" vertex="1" parent="1">
          <mxGeometry x="50" y="250" width="710" height="330" as="geometry" />
        </mxCell>
        <mxCell id="BEADETYPyIscL1xGhcD1-36" value="" style="rounded=0;whiteSpace=wrap;html=1;dashed=1;sketch=0;fillColor=none;fontFamily=Comic Sans MS;glass=0;shadow=0;" vertex="1" parent="1">
          <mxGeometry x="50" y="50" width="710" height="150" as="geometry" />
        </mxCell>
        <mxCell id="BEADETYPyIscL1xGhcD1-1" value="&lt;font face=&quot;Comic Sans MS&quot; style=&quot;font-size: 18px&quot;&gt;Redis Session Manager&lt;/font&gt;" style="text;html=1;align=center;verticalAlign=middle;resizable=0;points=[];autosize=1;strokeColor=none;" vertex="1" parent="1">
          <mxGeometry x="50" width="210" height="20" as="geometry" />
        </mxCell>
        <mxCell id="BEADETYPyIscL1xGhcD1-2" value="&lt;font face=&quot;Comic Sans MS&quot;&gt;ToB Session Map&lt;/font&gt;" style="rounded=1;whiteSpace=wrap;html=1;" vertex="1" parent="1">
          <mxGeometry x="55" y="280" width="120" height="30" as="geometry" />
        </mxCell>
        <mxCell id="BEADETYPyIscL1xGhcD1-4" value="&lt;font face=&quot;Comic Sans MS&quot;&gt;RMap&lt;/font&gt;" style="text;html=1;align=center;verticalAlign=middle;resizable=0;points=[];autosize=1;strokeColor=none;" vertex="1" parent="1">
          <mxGeometry x="55" y="260" width="50" height="20" as="geometry" />
        </mxCell>
        <mxCell id="BEADETYPyIscL1xGhcD1-5" value="&lt;font face=&quot;Comic Sans MS&quot;&gt;ToC Session Map&lt;/font&gt;" style="rounded=1;whiteSpace=wrap;html=1;" vertex="1" parent="1">
          <mxGeometry x="55" y="660" width="120" height="30" as="geometry" />
        </mxCell>
        <mxCell id="BEADETYPyIscL1xGhcD1-6" value="&lt;font face=&quot;Comic Sans MS&quot;&gt;RMap&lt;/font&gt;" style="text;html=1;align=center;verticalAlign=middle;resizable=0;points=[];autosize=1;strokeColor=none;" vertex="1" parent="1">
          <mxGeometry x="55" y="640" width="50" height="20" as="geometry" />
        </mxCell>
        <mxCell id="BEADETYPyIscL1xGhcD1-7" value="&lt;font face=&quot;Comic Sans MS&quot;&gt;ToA Session Map&lt;/font&gt;" style="rounded=1;whiteSpace=wrap;html=1;" vertex="1" parent="1">
          <mxGeometry x="55" y="794" width="120" height="30" as="geometry" />
        </mxCell>
        <mxCell id="BEADETYPyIscL1xGhcD1-8" value="&lt;font face=&quot;Comic Sans MS&quot;&gt;RMap&lt;/font&gt;" style="text;html=1;align=center;verticalAlign=middle;resizable=0;points=[];autosize=1;strokeColor=none;" vertex="1" parent="1">
          <mxGeometry x="55" y="774" width="50" height="20" as="geometry" />
        </mxCell>
        <mxCell id="BEADETYPyIscL1xGhcD1-9" value="&lt;p style=&quot;margin: 10px 0px 0px ; padding: 0px&quot;&gt;&lt;font face=&quot;Comic Sans MS&quot;&gt;MapName:IDENTITY:SSO:SESSION_HASH&lt;/font&gt;&lt;/p&gt;&lt;p style=&quot;margin: 10px 0px 0px ; padding: 0px&quot;&gt;&lt;font face=&quot;Comic Sans MS&quot;&gt;Key: sessionId, value: session&amp;nbsp;&amp;nbsp;&lt;/font&gt;&lt;/p&gt;" style="text;html=1;align=left;verticalAlign=middle;resizable=0;points=[];autosize=1;fillColor=#dae8fc;strokeColor=#6c8ebf;" vertex="1" parent="1">
          <mxGeometry x="280" y="265" width="270" height="60" as="geometry" />
        </mxCell>
        <mxCell id="BEADETYPyIscL1xGhcD1-10" value="&lt;p style=&quot;margin: 10px 0px 0px ; padding: 0px&quot;&gt;&lt;font face=&quot;Comic Sans MS&quot;&gt;MapName:IDENTITY:SSO:2C_SESSION_HASH&lt;/font&gt;&lt;/p&gt;&lt;p style=&quot;margin: 10px 0px 0px ; padding: 0px&quot;&gt;&lt;font face=&quot;Comic Sans MS&quot;&gt;Key: sessionId, value: session&amp;nbsp;&amp;nbsp;&lt;/font&gt;&lt;/p&gt;" style="text;html=1;align=left;verticalAlign=middle;resizable=0;points=[];autosize=1;fillColor=#dae8fc;strokeColor=#6c8ebf;" vertex="1" parent="1">
          <mxGeometry x="280" y="645" width="290" height="60" as="geometry" />
        </mxCell>
        <mxCell id="BEADETYPyIscL1xGhcD1-11" value="&lt;p style=&quot;margin: 10px 0px 0px ; padding: 0px&quot;&gt;&lt;font face=&quot;Comic Sans MS&quot;&gt;MapName:IDENTITY:SSO:2APP_SESSION_HASH&lt;/font&gt;&lt;/p&gt;&lt;p style=&quot;margin: 10px 0px 0px ; padding: 0px&quot;&gt;&lt;font face=&quot;Comic Sans MS&quot;&gt;Key: sessionId, value: session&lt;/font&gt;&amp;nbsp;&amp;nbsp;&lt;/p&gt;" style="text;html=1;align=left;verticalAlign=middle;resizable=0;points=[];autosize=1;fillColor=#dae8fc;strokeColor=#6c8ebf;" vertex="1" parent="1">
          <mxGeometry x="280" y="779" width="310" height="60" as="geometry" />
        </mxCell>
        <mxCell id="BEADETYPyIscL1xGhcD1-14" value="&lt;div style=&quot;text-align: left&quot;&gt;&lt;font face=&quot;Comic Sans MS&quot;&gt;&lt;span style=&quot;text-align: center&quot;&gt;key:IDENTITY:SSO:SESSION_EXPIRING_ID_SET,&lt;/span&gt;&lt;br style=&quot;text-align: center&quot;&gt;&lt;span style=&quot;text-align: center&quot;&gt;value:sessionId, score: expiredAt&lt;/span&gt;&lt;/font&gt;&lt;br&gt;&lt;/div&gt;" style="text;html=1;align=center;verticalAlign=middle;resizable=0;points=[];autosize=1;fillColor=#dae8fc;strokeColor=#6c8ebf;" vertex="1" parent="1">
          <mxGeometry x="280" y="75" width="320" height="40" as="geometry" />
        </mxCell>
        <mxCell id="BEADETYPyIscL1xGhcD1-15" value="&lt;font face=&quot;Comic Sans MS&quot;&gt;Expiring Session Set&lt;/font&gt;" style="rounded=1;whiteSpace=wrap;html=1;" vertex="1" parent="1">
          <mxGeometry x="55" y="80" width="120" height="30" as="geometry" />
        </mxCell>
        <mxCell id="BEADETYPyIscL1xGhcD1-16" value="&lt;font face=&quot;Comic Sans MS&quot;&gt;ScoredSortedSet&lt;/font&gt;" style="text;html=1;align=center;verticalAlign=middle;resizable=0;points=[];autosize=1;strokeColor=none;" vertex="1" parent="1">
          <mxGeometry x="50" y="60" width="120" height="20" as="geometry" />
        </mxCell>
        <mxCell id="BEADETYPyIscL1xGhcD1-17" value="&lt;div style=&quot;text-align: left&quot;&gt;&lt;font face=&quot;Comic Sans MS&quot;&gt;&lt;span style=&quot;text-align: center&quot;&gt;key:IDENTITY:SSO:SESSION_IDS_BY_IDENTIFIER_SET_{identifier},&lt;/span&gt;&lt;/font&gt;&lt;/div&gt;&lt;div style=&quot;text-align: left&quot;&gt;&lt;font face=&quot;Comic Sans MS&quot;&gt;&lt;span style=&quot;text-align: center&quot;&gt;value:sessionId&lt;/span&gt;&lt;/font&gt;&lt;br&gt;&lt;/div&gt;" style="text;html=1;align=center;verticalAlign=middle;resizable=0;points=[];autosize=1;fillColor=#dae8fc;strokeColor=#6c8ebf;" vertex="1" parent="1">
          <mxGeometry x="280" y="335" width="440" height="40" as="geometry" />
        </mxCell>
        <mxCell id="BEADETYPyIscL1xGhcD1-18" value="&lt;font face=&quot;Comic Sans MS&quot;&gt;Session Identifier Set&lt;/font&gt;" style="rounded=1;whiteSpace=wrap;html=1;" vertex="1" parent="1">
          <mxGeometry x="55" y="340" width="120" height="30" as="geometry" />
        </mxCell>
        <mxCell id="BEADETYPyIscL1xGhcD1-19" value="&lt;font face=&quot;Comic Sans MS&quot;&gt;RSet&lt;/font&gt;" style="text;html=1;align=center;verticalAlign=middle;resizable=0;points=[];autosize=1;strokeColor=none;" vertex="1" parent="1">
          <mxGeometry x="55" y="320" width="40" height="20" as="geometry" />
        </mxCell>
        <mxCell id="BEADETYPyIscL1xGhcD1-21" value="&lt;div style=&quot;text-align: left&quot;&gt;&lt;font face=&quot;Comic Sans MS&quot;&gt;&lt;span style=&quot;text-align: center&quot;&gt;key:&lt;/span&gt;&lt;span style=&quot;text-align: center&quot;&gt;IDENTITY:SSO:SESSION_IDS_APP_BY_IDENTIFIER_SET_&lt;/span&gt;&lt;span style=&quot;text-align: center&quot;&gt;{identifier},&lt;/span&gt;&lt;br style=&quot;text-align: center&quot;&gt;&lt;span style=&quot;text-align: center&quot;&gt;value:sessionId&lt;/span&gt;&lt;/font&gt;&lt;br&gt;&lt;/div&gt;" style="text;html=1;align=center;verticalAlign=middle;resizable=0;points=[];autosize=1;fillColor=#dae8fc;strokeColor=#6c8ebf;" vertex="1" parent="1">
          <mxGeometry x="280" y="864" width="460" height="40" as="geometry" />
        </mxCell>
        <mxCell id="BEADETYPyIscL1xGhcD1-22" value="&lt;font face=&quot;Comic Sans MS&quot;&gt;APP Session Identifier Set&lt;/font&gt;" style="rounded=1;whiteSpace=wrap;html=1;" vertex="1" parent="1">
          <mxGeometry x="55" y="864" width="120" height="30" as="geometry" />
        </mxCell>
        <mxCell id="BEADETYPyIscL1xGhcD1-23" value="&lt;font face=&quot;Comic Sans MS&quot;&gt;RSet&lt;/font&gt;" style="text;html=1;align=center;verticalAlign=middle;resizable=0;points=[];autosize=1;strokeColor=none;" vertex="1" parent="1">
          <mxGeometry x="55" y="844" width="40" height="20" as="geometry" />
        </mxCell>
        <mxCell id="BEADETYPyIscL1xGhcD1-24" value="&lt;font face=&quot;Comic Sans MS&quot;&gt;key:IDENTITY:SSO:SESSION_IDS_BY_PRIVILEGE_SET_{companyId}_{cpId},&lt;br&gt;value:session_id Set&lt;span&gt;&amp;nbsp;&lt;/span&gt;&lt;/font&gt;" style="text;html=1;align=left;verticalAlign=middle;resizable=0;points=[];autosize=1;fillColor=#dae8fc;strokeColor=#6c8ebf;" vertex="1" parent="1">
          <mxGeometry x="280" y="435" width="470" height="40" as="geometry" />
        </mxCell>
        <mxCell id="BEADETYPyIscL1xGhcD1-25" value="&lt;p style=&quot;margin: 10px 0px 0px ; padding: 0px&quot;&gt;&lt;font face=&quot;Comic Sans MS&quot;&gt;MapName:IDENTITY:SSO:PRIVILEGE_SESSION_HASH&lt;/font&gt;&lt;/p&gt;&lt;p style=&quot;margin: 10px 0px 0px ; padding: 0px&quot;&gt;&lt;span style=&quot;font-family: &amp;#34;comic sans ms&amp;#34;&quot;&gt;Key: sessionId_cpId, value: session&lt;/span&gt;&lt;/p&gt;" style="text;html=1;align=left;verticalAlign=middle;resizable=0;points=[];autosize=1;fillColor=#dae8fc;strokeColor=#6c8ebf;" vertex="1" parent="1">
          <mxGeometry x="280" y="505" width="340" height="60" as="geometry" />
        </mxCell>
        <mxCell id="BEADETYPyIscL1xGhcD1-26" value="&lt;p style=&quot;margin: 10px 0px 0px ; padding: 0px&quot;&gt;&lt;font face=&quot;Comic Sans MS&quot;&gt;MapName:IDENTITY:SSO:SESSION_ROLE_HASH&lt;/font&gt;&lt;/p&gt;&lt;p style=&quot;margin: 10px 0px 0px ; padding: 0px&quot;&gt;&lt;font face=&quot;Comic Sans MS&quot;&gt;Key: sessionId, value: roles set&lt;/font&gt;&amp;nbsp;&lt;/p&gt;" style="text;html=1;align=left;verticalAlign=middle;resizable=0;points=[];autosize=1;fillColor=#dae8fc;strokeColor=#6c8ebf;" vertex="1" parent="1">
          <mxGeometry x="280" y="127.5" width="310" height="60" as="geometry" />
        </mxCell>
        <mxCell id="BEADETYPyIscL1xGhcD1-27" value="&lt;font face=&quot;Comic Sans MS&quot;&gt;Company Privilege Session Set&lt;/font&gt;" style="rounded=1;whiteSpace=wrap;html=1;" vertex="1" parent="1">
          <mxGeometry x="60" y="440" width="120" height="30" as="geometry" />
        </mxCell>
        <mxCell id="BEADETYPyIscL1xGhcD1-28" value="&lt;font face=&quot;Comic Sans MS&quot;&gt;RSet&lt;/font&gt;" style="text;html=1;align=center;verticalAlign=middle;resizable=0;points=[];autosize=1;strokeColor=none;" vertex="1" parent="1">
          <mxGeometry x="60" y="420" width="40" height="20" as="geometry" />
        </mxCell>
        <mxCell id="BEADETYPyIscL1xGhcD1-29" value="&lt;font face=&quot;Comic Sans MS&quot;&gt;Privilege Session Map&lt;/font&gt;" style="rounded=1;whiteSpace=wrap;html=1;" vertex="1" parent="1">
          <mxGeometry x="55" y="520" width="120" height="30" as="geometry" />
        </mxCell>
        <mxCell id="BEADETYPyIscL1xGhcD1-30" value="&lt;font face=&quot;Comic Sans MS&quot;&gt;RMap&lt;/font&gt;" style="text;html=1;align=center;verticalAlign=middle;resizable=0;points=[];autosize=1;strokeColor=none;" vertex="1" parent="1">
          <mxGeometry x="50" y="500" width="50" height="20" as="geometry" />
        </mxCell>
        <mxCell id="BEADETYPyIscL1xGhcD1-31" value="&lt;font face=&quot;Comic Sans MS&quot;&gt;Session Roles Set&lt;/font&gt;" style="rounded=1;whiteSpace=wrap;html=1;" vertex="1" parent="1">
          <mxGeometry x="55" y="150" width="120" height="30" as="geometry" />
        </mxCell>
        <mxCell id="BEADETYPyIscL1xGhcD1-32" value="&lt;font face=&quot;Comic Sans MS&quot;&gt;RSet&lt;/font&gt;" style="text;html=1;align=center;verticalAlign=middle;resizable=0;points=[];autosize=1;strokeColor=none;" vertex="1" parent="1">
          <mxGeometry x="55" y="130" width="40" height="20" as="geometry" />
        </mxCell>
        <mxCell id="BEADETYPyIscL1xGhcD1-35" value="&lt;font face=&quot;Comic Sans MS&quot; style=&quot;background-color: rgb(151 , 208 , 119)&quot;&gt;Common&amp;nbsp;&lt;/font&gt;" style="text;html=1;align=center;verticalAlign=middle;resizable=0;points=[];autosize=1;strokeColor=none;" vertex="1" parent="1">
          <mxGeometry x="50" y="30" width="60" height="20" as="geometry" />
        </mxCell>
        <mxCell id="BEADETYPyIscL1xGhcD1-38" value="&lt;font face=&quot;Comic Sans MS&quot; style=&quot;background-color: rgb(151 , 208 , 119)&quot;&gt;2B Session&lt;/font&gt;" style="text;html=1;align=center;verticalAlign=middle;resizable=0;points=[];autosize=1;strokeColor=none;" vertex="1" parent="1">
          <mxGeometry x="50" y="230" width="80" height="20" as="geometry" />
        </mxCell>
        <mxCell id="BEADETYPyIscL1xGhcD1-40" value="&lt;font face=&quot;Comic Sans MS&quot; style=&quot;background-color: rgb(151 , 208 , 119)&quot;&gt;2C Session&lt;/font&gt;" style="text;html=1;align=center;verticalAlign=middle;resizable=0;points=[];autosize=1;strokeColor=none;" vertex="1" parent="1">
          <mxGeometry x="50" y="613.25" width="80" height="20" as="geometry" />
        </mxCell>
        <mxCell id="BEADETYPyIscL1xGhcD1-42" value="&lt;font face=&quot;Comic Sans MS&quot; style=&quot;background-color: rgb(151 , 208 , 119)&quot;&gt;2APP Session&lt;/font&gt;" style="text;html=1;align=center;verticalAlign=middle;resizable=0;points=[];autosize=1;strokeColor=none;" vertex="1" parent="1">
          <mxGeometry x="50" y="747.13" width="90" height="20" as="geometry" />
        </mxCell>
        <mxCell id="BEADETYPyIscL1xGhcD1-43" value="" style="rounded=0;whiteSpace=wrap;html=1;fillColor=none;dashed=1;" vertex="1" parent="1">
          <mxGeometry x="55" y="416.25" width="695" height="153.75" as="geometry" />
        </mxCell>
        <mxCell id="BEADETYPyIscL1xGhcD1-44" value="&lt;span style=&quot;background-color: rgb(255 , 204 , 153)&quot;&gt;&lt;font face=&quot;Comic Sans MS&quot;&gt;Company-Privilege Session Limitation&lt;/font&gt;&lt;/span&gt;" style="text;html=1;align=center;verticalAlign=middle;resizable=0;points=[];autosize=1;" vertex="1" parent="1">
          <mxGeometry x="50" y="396.25" width="220" height="20" as="geometry" />
        </mxCell>
      </root>
    </mxGraphModel>
  </diagram>
</mxfile>
